<svg width="48" height="48" viewBox="0 0 48 48" fill="none" xmlns="http://www.w3.org/2000/svg">
	<path
		d="M44.1526 10.2114L37.7886 3.84737C37.5073 3.56607 37.1257 3.40804 36.7279 3.40805C36.3301 3.40806 35.9486 3.5661 35.6673 3.84742C35.386 4.12873 35.2279 4.51026 35.2279 4.90809C35.2279 5.30591 35.386 5.68744 35.6673 5.96874L42.0312 12.3327C42.1705 12.4719 42.3359 12.5824 42.5179 12.6578C42.6998 12.7332 42.8949 12.772 43.0919 12.772C43.2889 12.772 43.4839 12.7332 43.6659 12.6579C43.8479 12.5825 44.0133 12.472 44.1525 12.3327C44.2918 12.1934 44.4023 12.0281 44.4777 11.8461C44.5531 11.6641 44.5919 11.469 44.5919 11.2721C44.5919 11.0751 44.5531 10.88 44.4777 10.698C44.4024 10.516 44.2919 10.3507 44.1526 10.2114H44.1526Z"
		fill="white" />
	<path
		d="M12.3327 3.84737C12.0514 3.56608 11.6699 3.40805 11.272 3.40805C10.8742 3.40805 10.4927 3.56608 10.2114 3.84737L3.8474 10.2114C3.5661 10.4927 3.40807 10.8742 3.40808 11.2721C3.40809 11.6699 3.56613 12.0514 3.84745 12.3327C4.12876 12.614 4.51029 12.772 4.90812 12.772C5.30595 12.772 5.68747 12.614 5.96877 12.3327L12.3327 5.96874C12.614 5.68742 12.772 5.30588 12.772 4.90805C12.772 4.51023 12.614 4.12869 12.3327 3.84737V3.84737Z"
		fill="white" />
	<path
		d="M41.9919 23.4794C41.9881 23.3448 41.9833 23.2105 41.9766 23.0765C41.9764 23.0718 41.976 23.0673 41.9757 23.0627C41.7439 18.6189 39.8744 14.4185 36.7279 11.2721C33.5815 8.12559 29.3811 6.25606 24.9373 6.02426C24.9327 6.02399 24.9282 6.02362 24.9235 6.02344C24.7895 6.01666 24.6551 6.0119 24.5206 6.00806C24.5004 6.00751 24.4804 6.00641 24.4601 6.00587C24.3071 6.00202 24.1537 6.00006 24 6C23.8463 6 23.6929 6.00195 23.5399 6.00586C23.5196 6.00641 23.4996 6.00751 23.4794 6.00806C23.3448 6.0119 23.2105 6.01666 23.0765 6.02343C23.0718 6.02362 23.0673 6.02398 23.0627 6.02426C18.6189 6.2561 14.4186 8.12564 11.2721 11.2721C8.12564 14.4186 6.2561 18.619 6.02426 23.0627C6.02399 23.0673 6.02362 23.0718 6.02344 23.0765C6.01666 23.2105 6.0119 23.3449 6.00806 23.4794C6.00751 23.4996 6.00641 23.5196 6.00587 23.5399C6.00202 23.6929 6.00006 23.8463 6 24C6 24.1537 6.00195 24.3071 6.00586 24.4601C6.00641 24.4804 6.00751 24.5004 6.00806 24.5206C6.0119 24.6551 6.01666 24.7895 6.02343 24.9235C6.02362 24.9282 6.02398 24.9327 6.02426 24.9373C6.25606 29.3811 8.12558 33.5815 11.2721 36.7279C14.4185 39.8744 18.6189 41.7439 23.0627 41.9757C23.0673 41.976 23.0718 41.9764 23.0765 41.9766C23.2105 41.9833 23.3449 41.9881 23.4794 41.9919C23.4996 41.9925 23.5196 41.9936 23.5399 41.9941C23.6929 41.998 23.8463 41.9999 24 42C24.1537 42 24.3071 41.998 24.4601 41.9941C24.4804 41.9936 24.5004 41.9925 24.5206 41.9919C24.6552 41.9881 24.7895 41.9833 24.9235 41.9766C24.9282 41.9764 24.9327 41.976 24.9373 41.9757C29.3811 41.7439 33.5814 39.8744 36.7279 36.7279C39.8744 33.5814 41.7439 29.381 41.9757 24.9373C41.976 24.9327 41.9764 24.9282 41.9766 24.9235C41.9833 24.7895 41.9881 24.6551 41.9919 24.5206C41.9925 24.5004 41.9936 24.4804 41.9941 24.4601C41.998 24.3071 41.9999 24.1537 42 24C42 23.8463 41.998 23.6929 41.9941 23.5399C41.9936 23.5196 41.9925 23.4996 41.9919 23.4794ZM34.5 25.5H24C23.6022 25.5 23.2206 25.342 22.9393 25.0607C22.658 24.7794 22.5 24.3978 22.5 24V13.5C22.5 13.1022 22.658 12.7206 22.9393 12.4393C23.2206 12.158 23.6022 12 24 12C24.3978 12 24.7794 12.158 25.0607 12.4393C25.342 12.7206 25.5 13.1022 25.5 13.5V22.5H34.5C34.8978 22.5 35.2794 22.658 35.5607 22.9393C35.842 23.2206 36 23.6022 36 24C36 24.3978 35.842 24.7794 35.5607 25.0607C35.2794 25.342 34.8978 25.5 34.5 25.5Z"
		fill="white" />
</svg>