<svg width="48" height="48" viewBox="0 0 48 48" fill="none" xmlns="http://www.w3.org/2000/svg">
	<path
		d="M41 15H33.4985V13.5C33.4972 12.3069 33.0226 11.1631 32.179 10.3195C31.3354 9.47591 30.1916 9.00136 28.9985 9H19.9985C18.8055 9.00136 17.6617 9.47591 16.8181 10.3195C15.9744 11.1631 15.4999 12.3069 15.4985 13.5V15H8C7.20463 15.0009 6.4421 15.3173 5.87968 15.8797C5.31727 16.4421 5.00091 17.2046 5 18V42C5.00091 42.7954 5.31727 43.5579 5.87968 44.1203C6.4421 44.6827 7.20463 44.9991 8 45H41C41.7954 44.9991 42.5579 44.6827 43.1203 44.1203C43.6827 43.5579 43.9991 42.7954 44 42V18C43.9991 17.2046 43.6827 16.4421 43.1203 15.8797C42.5579 15.3173 41.7954 15.0009 41 15V15ZM18.4985 13.5C18.499 13.1023 18.6572 12.721 18.9384 12.4398C19.2196 12.1586 19.6009 12.0005 19.9985 12H28.9985C29.3962 12.0005 29.7775 12.1586 30.0587 12.4398C30.3399 12.721 30.4981 13.1023 30.4985 13.5V15H18.4985V13.5ZM29.7485 31.5H25.9985V35.25C25.9985 35.6478 25.8405 36.0294 25.5592 36.3107C25.2779 36.592 24.8964 36.75 24.4985 36.75C24.1007 36.75 23.7192 36.592 23.4379 36.3107C23.1566 36.0294 22.9985 35.6478 22.9985 35.25V31.5H19.2485C18.8507 31.5 18.4692 31.342 18.1879 31.0607C17.9066 30.7794 17.7485 30.3978 17.7485 30C17.7485 29.6022 17.9066 29.2206 18.1879 28.9393C18.4692 28.658 18.8507 28.5 19.2485 28.5H22.9985V24.75C22.9985 24.3522 23.1566 23.9706 23.4379 23.6893C23.7192 23.408 24.1007 23.25 24.4985 23.25C24.8964 23.25 25.2779 23.408 25.5592 23.6893C25.8405 23.9706 25.9985 24.3522 25.9985 24.75V28.5H29.7485C30.1464 28.5 30.5279 28.658 30.8092 28.9393C31.0905 29.2206 31.2485 29.6022 31.2485 30C31.2485 30.3978 31.0905 30.7794 30.8092 31.0607C30.5279 31.342 30.1464 31.5 29.7485 31.5Z"
		fill="white" />
</svg>