<svg width="48" height="48" viewBox="0 0 48 48" fill="none" xmlns="http://www.w3.org/2000/svg">
	<path
		d="M41.9998 24C41.9998 24.3978 41.8417 24.7794 41.5604 25.0607C41.2791 25.342 40.8976 25.5 40.4998 25.5H19.5C19.1021 25.5 18.7206 25.342 18.4393 25.0607C18.158 24.7794 18 24.3978 18 24C18 23.6022 18.158 23.2207 18.4393 22.9394C18.7206 22.6581 19.1021 22.5 19.5 22.5H40.4998C40.8976 22.5 41.2791 22.6581 41.5604 22.9394C41.8417 23.2207 41.9998 23.6022 41.9998 24V24ZM19.5 13.5H40.4998C40.8976 13.5 41.2791 13.342 41.5604 13.0607C41.8418 12.7794 41.9998 12.3978 41.9998 12C41.9998 11.6022 41.8418 11.2207 41.5604 10.9394C41.2791 10.6581 40.8976 10.5 40.4998 10.5H19.5C19.1021 10.5 18.7206 10.6581 18.4393 10.9394C18.158 11.2207 18 11.6022 18 12C18 12.3978 18.158 12.7794 18.4393 13.0607C18.7206 13.342 19.1021 13.5 19.5 13.5V13.5ZM40.4998 34.5H19.4998C19.102 34.5 18.7204 34.6581 18.4391 34.9394C18.1578 35.2207 17.9998 35.6022 17.9998 36C17.9998 36.3978 18.1578 36.7794 18.4391 37.0607C18.7204 37.342 19.102 37.5 19.4998 37.5H40.4998C40.8976 37.5 41.2791 37.342 41.5604 37.0607C41.8418 36.7794 41.9998 36.3978 41.9998 36C41.9998 35.6022 41.8418 35.2207 41.5604 34.9394C41.2791 34.6581 40.8976 34.5 40.4998 34.5ZM8.17078 12.5916L8.99997 12.1771V20.2489C8.99997 20.6467 9.15801 21.0283 9.43931 21.3096C9.72062 21.5909 10.1021 21.7489 10.5 21.7489C10.8978 21.7489 11.2793 21.5909 11.5606 21.3096C11.8419 21.0283 12 20.6467 12 20.2489V9.75002C12 9.49432 11.9347 9.24287 11.8102 9.01953C11.6857 8.79619 11.5061 8.60839 11.2886 8.47397C11.0711 8.33954 10.8229 8.26296 10.5674 8.25148C10.312 8.24001 10.0579 8.29402 9.82917 8.40841L6.82917 9.90841C6.65282 9.9964 6.49554 10.1183 6.36632 10.2671C6.2371 10.4159 6.13847 10.5887 6.07607 10.7757C6.01367 10.9626 5.98872 11.16 6.00265 11.3566C6.01658 11.5532 6.06912 11.7451 6.15726 11.9214C6.2454 12.0977 6.36741 12.2548 6.51632 12.3839C6.66524 12.513 6.83813 12.6115 7.02512 12.6738C7.21212 12.736 7.40955 12.7608 7.60613 12.7467C7.8027 12.7326 7.99458 12.6799 8.17078 12.5916V12.5916ZM13.5447 31.9323C13.8664 31.4553 14.0848 30.9163 14.1858 30.3499C14.2869 29.7835 14.2683 29.2022 14.1314 28.6434C13.9944 28.0846 13.7421 27.5606 13.3906 27.1051C13.0391 26.6496 12.5962 26.2727 12.0904 25.9985C11.5845 25.7243 11.027 25.559 10.4534 25.5131C9.87992 25.4673 9.30315 25.5419 8.76017 25.7321C8.21719 25.9224 7.72002 26.2242 7.30059 26.618C6.88116 27.0118 6.54875 27.4891 6.32471 28.019C6.16975 28.3854 6.16669 28.7984 6.3162 29.167C6.46571 29.5357 6.75555 29.8299 7.12195 29.9848C7.48836 30.1398 7.90131 30.1428 8.26998 29.9933C8.63864 29.8438 8.93281 29.554 9.08777 29.1876C9.14833 29.0442 9.23798 28.9149 9.35104 28.8079C9.46411 28.701 9.59814 28.6186 9.74466 28.5661C9.89118 28.5135 10.047 28.4919 10.2023 28.5027C10.3576 28.5134 10.5089 28.5563 10.6468 28.6285C10.7847 28.7008 10.9061 28.8008 11.0033 28.9224C11.1006 29.0439 11.1715 29.1843 11.2118 29.3347C11.252 29.485 11.2606 29.6421 11.237 29.796C11.2134 29.9498 11.1582 30.0971 11.0747 30.2285L6.29963 36.6004C6.13259 36.8233 6.03091 37.0883 6.00598 37.3657C5.98104 37.6431 6.03383 37.922 6.15844 38.1711C6.28304 38.4202 6.47454 38.6297 6.71148 38.7761C6.94843 38.9225 7.22145 39 7.49997 39H12.75C13.1478 39 13.5293 38.842 13.8106 38.5607C14.0919 38.2794 14.25 37.8978 14.25 37.5C14.25 37.1022 14.0919 36.7207 13.8106 36.4394C13.5293 36.1581 13.1478 36 12.75 36H10.4985L13.502 31.9922C13.5167 31.9726 13.531 31.9527 13.5447 31.9323Z"
		fill="white" />
</svg>